<svg width="520" height="520" viewBox="0 0 520 520" fill="none" xmlns="http://www.w3.org/2000/svg">
  <rect width="520" height="520" rx="40" fill="#F7F9FC"/>
  <rect x="110" y="120" width="300" height="220" rx="28" fill="#364FC7"/>
  <rect x="145" y="155" width="230" height="28" rx="14" fill="#E3F2FF"/>
  <rect x="145" y="205" width="180" height="18" rx="9" fill="#E3F2FF"/>
  <rect x="145" y="235" width="240" height="18" rx="9" fill="#E3F2FF"/>
  <rect x="145" y="265" width="200" height="18" rx="9" fill="#E3F2FF"/>
  <rect x="145" y="295" width="90" height="18" rx="9" fill="#A5D8FF"/>
  <rect x="240" y="295" width="75" height="18" rx="9" fill="#A5D8FF"/>
  <path d="M110 340H410L380 430H140L110 340Z" fill="#2F5CCF"/>
  <circle cx="130" cy="110" r="30" fill="#F9C74F"/>
  <path d="M130 110L160 130" stroke="#F6A60C" stroke-width="12" stroke-linecap="round"/>
  <path d="M100 120L120 150" stroke="#F6A60C" stroke-width="12" stroke-linecap="round"/>
  <text x="140" y="472" fill="#1F3A93" font-size="24" font-family="Inter, sans-serif" font-weight="700">Admin Portal</text>
</svg>
